<?xml version="1.0" encoding="utf-8"?>
<!-- Generator: Adobe Illustrator 16.0.0, SVG Export Plug-In . SVG Version: 6.00 Build 0)  -->
<!DOCTYPE svg PUBLIC "-//W3C//DTD SVG 1.1//EN" "http://www.w3.org/Graphics/SVG/1.1/DTD/svg11.dtd">
<svg version="1.1" id="Calque_1" xmlns="http://www.w3.org/2000/svg" xmlns:xlink="http://www.w3.org/1999/xlink" x="0px" y="0px"
	 width="575.5px" height="400px" viewBox="0 0 575.5 400" enable-background="new 0 0 575.5 400" xml:space="preserve">
<g id="Calque_1_1_">
	<path fill="#F4B1A6" d="M365.852,217.775c1.795,10.811-5.514,21.029-16.324,22.824l-242.984,40.354
		c-10.811,1.796-21.03-5.512-22.825-16.323L60.563,125.225c-1.795-10.811,5.513-21.03,16.324-22.825l242.986-40.353
		c10.811-1.796,21.029,5.513,22.825,16.323L365.852,217.775z"/>
	
		<rect x="63.568" y="117.555" transform="matrix(-0.9865 0.1638 -0.1638 -0.9865 431.9006 227.4953)" fill="#00517A" width="286.006" height="27.999"/>
	<path fill="#906264" d="M515.207,293.157c0,10.959-8.883,19.843-19.842,19.843H249.05c-10.959,0-19.843-8.884-19.843-19.843
		V151.843c0-10.959,8.884-19.843,19.843-19.843h246.315c10.959,0,19.842,8.884,19.842,19.843V293.157z"/>
	<rect x="379.529" y="245.445" fill="#00517A" width="31.234" height="11.104"/>
	<rect x="340.31" y="245.445" fill="#00517A" width="31.237" height="11.104"/>
	<rect x="418.75" y="245.445" fill="#00517A" width="31.236" height="11.104"/>
	<rect x="457.969" y="245.445" fill="#00517A" width="31.238" height="11.104"/>
	<rect x="363.094" y="210.445" fill="#00517A" width="126.113" height="11.104"/>
	<g>
		<g>
			<path fill="#F4B1A6" d="M302.75,236.283h-14.652c1.374,7.668,4.463,10.986,9.844,10.986c5.84,0,10.875-1.371,13.735-2.519
				l4.121,14.422c-5.495,2.291-11.104,3.894-19.573,3.894c-15.683,0-24.955-8.928-27.931-26.783h-10.187l2.862-10.303h6.41
				c-0.115-1.263-0.115-2.633-0.115-4.008c0-1.371,0-2.746,0.115-4.119h-9.272l2.862-10.306h7.326
				c2.976-18.429,12.82-27.127,28.389-27.127c8.015,0,13.965,1.83,19.347,4.006l-4.12,14.652c-2.979-1.26-7.212-2.863-13.854-2.863
				c-5.381,0-8.584,3.319-10.075,11.332h22.095l-2.862,10.306h-20.03c-0.115,1.258-0.115,1.942-0.115,3.892
				c0,2.062,0,2.862,0.115,4.235h18.43L302.75,236.283z"/>
		</g>
	</g>
</g>
</svg>
